<!DOCTYPE svg PUBLIC "-//W3C//DTD SVG 20010904//EN" "http://www.w3.org/TR/2001/REC-SVG-20010904/DTD/svg10.dtd">
<svg version="1.0" xmlns="http://www.w3.org/2000/svg" width="820px" height="1600px" viewBox="0 0 8200 16000" preserveAspectRatio="xMidYMid meet">
<g id="layer1" fill="#ffd54f" stroke="none">
 <path d="M1973 15985 c-28 -8 -71 -23 -95 -33 -24 -11 -63 -27 -88 -37 -25 -9 -65 -25 -90 -35 -62 -24 -117 -45 -170 -62 l-45 -15 -3 -2330 -2 -2330 87 -81 c49 -44 102 -92 118 -107 26 -24 65 -52 123 -90 9 -5 21 -13 26 -18 38 -27 91 -57 161 -90 44 -21 88 -43 97 -48 26 -14 218 -80 258 -88 19 -5 53 -13 75 -19 183 -49 420 -75 684 -74 250 1 427 17 520 49 187 63 372 191 499 348 31 39 59 72 62 75 3 3 10 12 15 21 6 9 22 35 37 57 16 23 28 46 28 52 0 5 4 10 8 10 7 0 82 144 117 225 39 92 45 107 45 118 0 6 9 34 19 62 35 90 81 295 107 475 24 165 24 679 0 835 -25 165 -67 330 -108 430 -11 28 -26 64 -32 80 -39 95 -141 282 -176 322 -5 7 -10 16 -10 22 0 5 -3 11 -8 13 -4 2 -25 27 -46 56 -21 28 -42 52 -47 52 -5 0 -9 5 -9 10 0 13 -77 90 -90 90 -5 0 -10 4 -10 10 0 5 -28 30 -62 55 -35 24 -67 48 -73 53 -5 4 -30 19 -55 32 -25 13 -52 30 -60 36 -27 22 -213 91 -295 110 -68 16 -121 19 -350 19 -282 0 -374 -10 -515 -55 -30 -9 -73 -23 -95 -30 -63 -19 -150 -57 -288 -126 -71 -35 -131 -64 -133 -64 -2 0 -5 440 -6 978 -3 894 -4 980 -20 1015 -19 41 -26 43 -105 22z m1199 -2215 c118 -28 210 -65 246 -97 7 -7 17 -13 22 -13 18 0 147 -140 198 -214 28 -42 52 -79 52 -82 0 -2 15 -37 33 -77 39 -83 57 -132 64 -167 2 -14 10 -52 18 -85 52 -222 69 -811 32 -1080 -19 -142 -40 -250 -64 -335 -17 -60 -81 -229 -93 -245 -5 -5 -20 -32 -36 -60 -15 -27 -43 -69 -62 -93 -37 -45 -112 -122 -119 -122 -2 0 -9 -4 -16 -10 -59 -48 -77 -60 -90 -60 -9 0 -18 -4 -22 -9 -9 -16 -127 -49 -214 -60 -111 -14 -182 -14 -321 4 -245 30 -394 79 -595 195 -38 22 -78 43 -87 46 -17 6 -18 70 -18 1148 l0 1142 33 17 c17 10 50 28 72 42 128 81 362 172 560 219 94 22 306 20 407 -4z"/>
 <path d="M6226 15992 c-7 -12 -46 -155 -61 -229 -8 -34 -19 -71 -24 -82 -17 -31 -13 -59 12 -74 20 -13 104 -32 322 -73 44 -8 105 -22 135 -31 30 -9 71 -19 90 -23 122 -26 306 -92 422 -153 161 -84 275 -194 347 -334 28 -55 81 -234 81 -275 0 -12 6 -59 14 -103 25 -137 46 -374 46 -512 0 -120 -7 -153 -24 -124 -3 5 -18 12 -33 15 -16 4 -41 13 -58 20 -16 8 -51 23 -76 35 -25 12 -51 21 -57 21 -6 0 -26 6 -44 14 -82 34 -230 74 -403 108 -112 21 -145 23 -475 23 l-355 0 -85 -28 c-95 -31 -310 -134 -310 -148 0 -5 -5 -9 -10 -9 -36 0 -221 -164 -288 -255 -20 -27 -39 -52 -42 -55 -11 -10 -72 -135 -90 -184 -53 -146 -59 -337 -60 -1686 l0 -1145 78 -23 c42 -13 97 -32 122 -42 25 -10 72 -26 105 -35 33 -10 81 -26 107 -36 26 -11 55 -19 66 -19 11 0 36 -7 55 -15 20 -8 47 -15 60 -15 22 0 25 5 31 58 19 153 25 517 26 1522 l0 1095 44 85 c89 174 126 228 198 286 19 15 121 71 208 115 131 65 177 73 368 66 213 -8 374 -34 467 -76 11 -5 61 -26 110 -47 50 -21 101 -45 114 -54 23 -14 91 -46 184 -87 l37 -16 0 -1439 0 -1438 311 0 312 0 -6 1613 c-6 1593 -20 2337 -47 2502 -6 33 -14 92 -19 130 -16 126 -35 182 -119 354 -60 123 -148 231 -272 333 -25 21 -52 44 -60 51 -49 45 -256 161 -420 236 -89 40 -287 100 -450 136 -168 37 -570 69 -584 47z"/>
 </g>
<g id="layer2" fill="#3675a9" stroke="none">
 <path d="M275 15994 c-69 -18 -96 -33 -147 -82 -32 -30 -58 -59 -58 -64 0 -5 -6 -16 -14 -23 -8 -8 -22 -49 -32 -92 -18 -76 -19 -294 -19 -7248 0 -6599 2 -7209 18 -7660 17 -495 32 -656 68 -726 13 -26 50 -46 148 -80 82 -29 372 -28 458 2 76 25 153 97 172 160 26 86 30 316 36 1844 6 1849 19 2916 40 3365 21 441 61 836 106 1045 11 50 27 124 35 165 9 41 25 104 35 140 10 36 30 103 43 150 28 95 43 140 61 185 7 17 16 45 19 62 4 18 12 35 17 38 5 4 9 14 9 25 0 10 9 35 19 57 10 21 43 94 72 163 29 69 56 130 60 135 4 6 28 51 54 100 26 50 53 97 61 106 8 8 14 19 14 24 0 8 78 134 90 145 3 3 10 12 15 21 38 61 69 105 79 114 6 6 33 38 59 72 26 34 68 83 92 109 25 25 45 48 45 51 0 4 90 92 152 149 26 24 157 128 249 197 21 16 39 27 154 95 128 76 228 127 350 177 17 7 51 22 78 34 26 11 54 21 62 21 8 0 29 6 47 14 18 8 60 22 93 31 33 10 80 24 105 32 25 7 90 24 145 36 97 21 116 22 725 22 569 0 634 -2 725 -19 108 -20 337 -83 425 -117 30 -12 73 -28 95 -36 37 -13 137 -59 225 -103 61 -30 153 -82 198 -111 24 -16 47 -29 53 -29 5 0 9 -4 9 -8 0 -5 11 -14 24 -20 21 -9 181 -127 216 -159 24 -22 93 -85 141 -129 24 -22 73 -73 109 -114 36 -40 72 -80 81 -89 32 -34 119 -149 119 -159 0 -6 3 -12 8 -14 12 -5 62 -76 62 -87 0 -6 4 -11 8 -11 5 0 16 -15 25 -32 9 -18 23 -42 29 -53 52 -81 121 -204 154 -275 14 -30 33 -73 44 -95 10 -22 25 -56 33 -75 8 -19 24 -56 36 -81 12 -25 21 -53 21 -61 0 -8 4 -18 9 -23 10 -12 92 -251 120 -355 12 -41 30 -106 41 -145 11 -38 24 -90 29 -115 4 -25 15 -74 24 -110 17 -67 34 -157 62 -315 31 -174 45 -603 54 -1710 14 -1551 30 -3144 36 -3550 7 -470 25 -733 51 -760 8 -7 14 -17 14 -21 0 -18 90 -85 138 -104 47 -17 77 -20 231 -20 203 0 261 13 336 75 77 62 95 107 108 263 9 102 12 1334 12 4810 l0 4674 -67 64 c-37 35 -86 73 -109 84 -111 57 -288 75 -418 44 -98 -23 -158 -55 -233 -124 l-68 -62 0 -141 c0 -78 -7 -331 -15 -562 -8 -231 -15 -454 -15 -495 -1 -81 -2 -82 -50 -10 -43 63 -73 100 -81 100 -5 0 -9 5 -9 11 0 14 -33 49 -197 212 -164 163 -230 227 -236 227 -2 0 -22 17 -44 38 -22 22 -83 71 -134 110 -52 39 -99 76 -106 82 -7 5 -15 10 -18 10 -3 0 -27 15 -53 33 -45 30 -60 39 -114 70 -13 6 -25 15 -28 18 -6 7 -51 32 -100 55 -19 9 -37 19 -40 23 -6 7 -170 84 -270 126 -104 43 -214 83 -300 108 -30 9 -84 25 -120 35 -36 11 -99 26 -140 35 -196 41 -228 47 -270 52 -25 3 -92 12 -150 20 -376 51 -1003 50 -1400 -1 -237 -30 -506 -86 -655 -135 -16 -6 -50 -16 -75 -24 -64 -18 -111 -35 -143 -51 -16 -8 -34 -14 -41 -14 -53 0 -543 -254 -631 -327 -5 -5 -28 -19 -50 -33 -22 -13 -47 -30 -55 -37 -8 -7 -48 -38 -89 -69 -41 -31 -79 -60 -85 -65 -6 -5 -22 -19 -36 -30 -146 -120 -382 -355 -511 -509 -30 -36 -66 -77 -82 -93 -15 -15 -27 -32 -27 -37 0 -6 -4 -10 -8 -10 -5 0 -12 1542 -15 3428 -7 3337 -11 3740 -39 3833 -22 74 -105 137 -218 166 -55 14 -337 27 -375 17z"/>
 </g>

</svg>