<!DOCTYPE svg PUBLIC "-//W3C//DTD SVG 20010904//EN" "http://www.w3.org/TR/2001/REC-SVG-20010904/DTD/svg10.dtd">
<svg version="1.0" xmlns="http://www.w3.org/2000/svg" width="1600px" height="1038px" viewBox="0 0 16000 10380" preserveAspectRatio="xMidYMid meet">
<g id="layer1" fill="#fcd751" stroke="none">
 <path d="M3095 9529 c-140 -9 -321 -38 -453 -74 -51 -14 -102 -25 -112 -25 -24 0 -217 -66 -345 -118 -55 -22 -111 -43 -125 -47 -52 -15 -395 -197 -479 -255 -48 -33 -93 -60 -99 -60 -6 0 -15 -6 -19 -13 -4 -7 -44 -41 -88 -77 -44 -35 -85 -69 -91 -77 -6 -7 -16 -13 -21 -13 -18 0 -56 -49 -50 -64 9 -22 102 -21 350 6 268 28 718 31 906 5 209 -29 279 -51 467 -148 183 -92 249 -132 355 -210 37 -27 70 -49 74 -49 4 0 24 -15 45 -32 20 -18 72 -62 116 -98 152 -124 423 -406 570 -593 79 -100 244 -357 367 -572 22 -38 73 -127 114 -197 40 -70 73 -131 73 -136 0 -5 34 -67 75 -138 41 -71 75 -136 75 -145 0 -8 4 -19 9 -25 22 -22 235 -445 398 -789 39 -82 108 -226 153 -320 46 -93 88 -188 95 -210 8 -22 41 -98 75 -170 35 -71 71 -152 80 -180 34 -96 45 -120 86 -195 23 -41 47 -93 54 -115 7 -22 16 -47 21 -55 40 -68 469 -945 469 -958 0 -8 9 -26 19 -41 22 -31 291 -560 291 -572 0 -5 21 -46 47 -91 25 -46 81 -150 123 -233 43 -82 94 -177 114 -209 20 -33 36 -62 36 -66 0 -3 34 -57 75 -120 42 -63 78 -126 82 -140 8 -31 48 -91 109 -161 25 -30 52 -67 59 -84 8 -16 22 -37 32 -46 11 -9 46 -50 78 -92 33 -43 63 -77 67 -77 4 0 8 -5 8 -11 0 -13 111 -149 122 -149 5 0 12 -10 17 -23 18 -46 404 -428 451 -445 8 -3 40 -27 70 -52 116 -99 333 -233 526 -326 265 -127 280 -134 294 -134 7 0 76 -24 154 -54 220 -84 282 -102 496 -141 135 -25 371 -39 635 -39 283 0 451 15 675 60 69 14 141 27 160 29 53 6 201 51 328 101 63 24 120 44 128 44 30 0 399 191 417 216 42 57 -1 75 -188 79 -230 6 -378 47 -715 196 -115 52 -477 279 -589 370 -30 24 -73 58 -96 74 -95 68 -515 469 -515 492 0 8 -8 17 -17 21 -19 8 -133 124 -133 136 0 4 -38 44 -83 89 -128 126 -282 329 -414 547 -21 36 -65 106 -97 155 -84 132 -144 241 -381 700 -48 94 -105 201 -126 238 -22 38 -39 74 -39 81 0 6 -6 20 -14 31 -10 16 -237 454 -274 532 -15 32 -305 601 -329 648 -57 108 -318 640 -318 649 -1 6 -22 49 -47 96 -78 144 -208 426 -208 453 0 10 -18 41 -40 70 -21 29 -46 70 -55 91 -9 21 -47 94 -86 162 -38 68 -69 127 -68 131 0 5 -29 67 -65 138 -36 72 -78 157 -94 190 -16 33 -43 82 -60 109 -17 27 -50 87 -72 135 -23 47 -45 93 -50 101 -146 233 -251 411 -263 445 -14 41 -81 137 -105 152 -17 10 -209 254 -237 301 -24 41 -108 153 -119 160 -7 4 -32 35 -56 69 -24 35 -51 65 -61 68 -9 3 -32 25 -50 49 -57 72 -126 146 -138 146 -6 0 -11 4 -11 8 0 10 -127 142 -136 142 -4 0 -44 35 -89 79 -45 43 -93 85 -108 92 -14 8 -71 42 -127 77 -55 34 -104 62 -107 62 -4 0 -56 29 -117 64 -162 92 -207 116 -222 116 -7 0 -56 20 -110 44 -168 76 -420 147 -679 190 -183 31 -581 43 -850 25z"/>
 <path d="M1415 8379 c-33 -5 -100 -21 -150 -35 -49 -15 -108 -30 -130 -34 -72 -15 -325 -133 -325 -152 0 -4 -6 -8 -13 -8 -14 0 -147 -130 -147 -145 0 -5 -8 -18 -18 -29 -38 -43 -120 -182 -127 -216 -4 -19 -12 -38 -18 -42 -6 -3 -11 -17 -12 -30 -2 -12 -30 -81 -63 -153 -63 -135 -79 -180 -137 -380 -59 -204 -100 -380 -109 -461 -2 -17 -6 -36 -10 -43 -4 -6 -5 -15 -1 -20 3 -5 -2 -56 -10 -113 -37 -241 -47 -376 -52 -669 -6 -328 3 -502 38 -732 11 -72 22 -158 24 -190 3 -33 9 -73 15 -90 5 -18 26 -88 45 -157 19 -69 48 -165 65 -214 16 -50 30 -100 30 -112 0 -18 18 -70 51 -149 58 -140 109 -272 109 -283 0 -8 24 -65 54 -126 29 -61 68 -142 86 -181 55 -118 113 -227 155 -293 22 -34 73 -112 112 -173 40 -61 73 -115 73 -120 0 -4 20 -37 45 -71 83 -115 125 -177 125 -184 0 -3 24 -38 53 -78 30 -39 67 -91 83 -116 36 -56 125 -170 148 -189 9 -8 23 -28 30 -45 8 -17 50 -69 95 -115 44 -47 81 -88 81 -93 0 -4 28 -36 63 -71 34 -34 153 -154 264 -267 197 -199 296 -294 378 -361 22 -18 70 -61 107 -96 36 -35 70 -63 75 -63 4 0 35 -25 68 -56 57 -53 301 -222 375 -259 19 -10 77 -45 128 -77 242 -154 556 -298 650 -298 44 0 106 65 122 130 20 74 80 250 111 324 16 37 29 74 29 80 0 7 16 39 37 72 104 169 114 208 62 247 -25 18 -31 18 -77 7 -27 -7 -69 -28 -93 -47 -133 -101 -174 -112 -260 -69 -77 37 -102 58 -214 177 -132 141 -211 253 -299 429 -81 161 -112 240 -150 380 -75 280 -71 461 15 730 88 273 333 550 608 688 84 42 101 47 160 47 82 0 138 -29 241 -121 39 -35 75 -64 80 -64 5 0 21 22 35 49 13 27 29 52 35 56 5 3 10 14 10 24 0 10 11 44 25 75 14 31 25 74 25 96 0 55 -46 103 -115 119 -119 29 -551 5 -895 -51 -553 -89 -771 -97 -890 -32 -67 36 -390 371 -390 405 0 8 -14 27 -30 43 -41 41 -133 176 -135 199 -1 10 -7 22 -14 26 -38 24 -174 323 -185 407 -3 16 -14 92 -25 169 -44 306 -52 746 -16 965 16 96 53 248 82 330 32 89 214 447 248 487 19 23 35 44 35 48 0 25 402 438 518 534 141 115 388 273 432 276 10 1 24 6 32 11 35 27 320 155 364 163 63 12 104 28 104 40 0 11 -147 111 -163 111 -7 0 -53 18 -103 39 -136 59 -284 113 -329 121 -22 4 -67 15 -100 24 -142 40 -255 48 -720 51 -247 2 -477 0 -510 -6z m530 -6053 c19 -8 56 -30 82 -48 27 -18 55 -37 65 -43 36 -22 280 -229 391 -333 269 -250 557 -595 557 -668 0 -28 -47 -46 -88 -35 -44 13 -105 47 -126 70 -11 12 -25 21 -32 21 -17 0 -189 155 -303 273 -53 56 -139 144 -191 197 -52 53 -129 133 -170 177 -41 45 -101 110 -134 144 -32 35 -65 78 -73 96 -7 18 -18 33 -23 33 -6 0 -20 21 -32 46 l-23 45 25 19 c30 24 32 24 75 6z"/>
 </g>
<g id="layer2" fill="#457aac" stroke="none">
 <path d="M5549 10290 c-58 -4 -143 -15 -190 -24 -46 -8 -136 -24 -199 -36 -225 -39 -655 -188 -860 -298 -114 -61 -200 -114 -200 -123 0 -15 14 -17 190 -28 284 -18 460 -59 697 -162 61 -27 114 -49 117 -49 6 0 268 -154 312 -184 160 -107 367 -267 514 -396 152 -133 505 -496 672 -690 78 -92 268 -329 268 -336 0 -3 17 -31 38 -62 22 -31 71 -117 111 -191 39 -73 87 -157 105 -185 19 -28 49 -80 68 -116 20 -36 60 -108 91 -161 31 -53 62 -112 70 -131 8 -18 46 -90 84 -159 39 -69 74 -136 78 -150 4 -13 13 -33 20 -45 16 -25 261 -502 287 -559 22 -46 48 -100 117 -235 27 -52 121 -243 210 -425 389 -795 974 -1972 1040 -2090 30 -55 69 -129 87 -165 17 -36 55 -105 84 -155 29 -49 62 -108 73 -130 22 -45 103 -174 216 -344 42 -63 85 -128 96 -146 93 -148 391 -508 588 -711 218 -226 488 -446 660 -540 395 -215 695 -316 1142 -386 267 -41 809 -33 1065 16 497 97 639 146 1090 381 236 123 515 337 508 389 -3 19 -9 21 -88 21 -47 -1 -148 -6 -226 -13 -262 -22 -849 -12 -1044 19 -100 15 -265 76 -375 137 -212 118 -294 175 -509 350 -114 94 -486 463 -543 539 -15 21 -55 72 -88 113 -33 41 -76 98 -95 126 -19 29 -59 86 -87 128 -29 41 -53 78 -53 81 0 3 -34 59 -76 126 -41 66 -79 131 -84 144 -5 13 -34 67 -66 121 -144 251 -590 1147 -812 1634 -44 96 -110 240 -147 320 -37 80 -81 177 -97 215 -16 39 -56 126 -90 195 -33 69 -66 141 -73 160 -7 19 -44 100 -82 180 -39 80 -112 233 -163 340 -162 338 -292 602 -340 690 -26 47 -51 96 -55 110 -4 14 -24 54 -45 90 -20 36 -54 99 -76 140 -189 368 -477 842 -701 1154 -173 241 -409 503 -613 680 -93 81 -113 96 -272 211 -173 125 -547 328 -733 398 -200 75 -397 138 -480 152 -49 9 -155 28 -235 42 -133 23 -173 26 -470 28 -179 2 -373 0 -431 -5z"/>
 <path d="M12256 9758 c-33 -25 -73 -108 -106 -217 -12 -40 -50 -140 -85 -221 -35 -82 -66 -159 -70 -172 -4 -13 -18 -51 -31 -86 -14 -35 -24 -78 -22 -95 3 -31 5 -32 46 -30 29 1 86 23 180 67 76 36 151 66 167 66 16 0 47 -9 69 -20 46 -23 176 -143 227 -211 19 -25 59 -79 90 -120 68 -90 192 -291 224 -363 32 -72 71 -205 87 -296 9 -52 13 -172 13 -385 0 -278 -2 -316 -19 -365 -62 -180 -182 -351 -341 -485 -89 -76 -163 -124 -281 -184 -53 -27 -72 -31 -140 -31 -61 0 -88 5 -118 21 -62 33 -136 92 -142 114 -16 53 -66 72 -97 37 -9 -10 -21 -43 -27 -73 -6 -30 -18 -65 -28 -79 -42 -58 -55 -156 -27 -210 21 -40 62 -50 233 -57 215 -9 525 13 827 57 370 55 452 64 610 64 118 1 146 -2 180 -18 60 -28 348 -322 449 -459 211 -284 327 -553 391 -912 35 -198 29 -738 -11 -935 -53 -259 -184 -522 -432 -866 -106 -147 -316 -369 -440 -464 -157 -121 -637 -384 -772 -424 -101 -30 -127 -83 -65 -133 70 -56 355 -168 542 -213 279 -68 478 -86 823 -76 407 11 704 62 905 155 314 146 489 415 674 1036 60 199 96 344 110 435 6 36 21 128 35 205 50 281 60 416 61 775 0 365 -8 467 -57 755 -17 99 -34 207 -39 240 -18 115 -145 545 -209 705 -119 297 -324 696 -497 965 -32 49 -74 115 -93 147 -45 74 -221 328 -272 393 -21 28 -59 77 -83 110 -70 94 -176 227 -216 271 -21 21 -56 63 -79 92 -61 78 -588 605 -709 708 -330 284 -623 480 -1001 669 -270 136 -369 161 -434 113z m902 -592 c78 -58 210 -184 508 -487 426 -432 488 -504 482 -562 -4 -47 -42 -48 -136 -1 -108 53 -280 202 -598 519 -286 285 -434 453 -434 491 0 12 12 36 26 53 38 46 77 42 152 -13z"/>
 <path d="M2875 9514 c-44 -8 -87 -17 -95 -21 -8 -3 -19 -5 -23 -4 -13 2 -211 -50 -220 -59 -21 -20 19 -18 110 6 54 14 105 28 113 31 8 3 26 6 40 7 36 3 213 28 228 32 7 2 10 8 7 14 -8 13 -63 11 -160 -6z"/>
 <path d="M3875 9511 c-7 -13 11 -23 38 -20 12 1 29 -1 37 -4 8 -3 42 -11 75 -17 33 -7 105 -23 159 -36 67 -17 102 -22 109 -15 7 7 2 13 -15 20 -38 14 -258 62 -301 66 -21 1 -41 5 -44 9 -10 9 -51 7 -58 -3z"/>
 <path d="M2458 9416 c-16 -8 -28 -13 -28 -11 0 9 -177 -56 -415 -153 -22 -9 -71 -32 -110 -53 -38 -20 -114 -59 -167 -87 -53 -28 -136 -78 -183 -111 -47 -34 -88 -61 -91 -61 -3 0 -39 -28 -81 -62 -137 -115 -137 -114 -124 -123 8 -4 27 6 49 27 100 93 293 230 426 300 190 100 306 158 318 158 7 0 54 18 103 39 50 21 130 53 179 70 50 18 95 36 101 41 7 6 14 7 17 5 9 -9 59 15 53 25 -8 13 -15 13 -47 -4z"/>
 <path d="M4325 9420 c-3 -6 0 -12 7 -15 165 -58 249 -90 320 -123 48 -23 90 -37 93 -32 8 13 -25 32 -131 78 -74 33 -264 102 -279 102 -2 0 -7 -5 -10 -10z"/>
 <path d="M4765 9250 c-3 -5 18 -21 47 -36 29 -15 94 -51 144 -80 50 -30 100 -57 110 -61 26 -9 195 -111 216 -130 10 -9 18 -11 22 -4 10 16 -104 94 -246 170 -40 21 -120 64 -177 95 -118 63 -108 59 -116 46z"/>
 <path d="M1755 8749 c-141 -9 -173 -14 -162 -26 4 -3 201 -6 439 -7 487 -2 522 -6 714 -75 60 -21 156 -65 214 -96 58 -32 123 -67 145 -78 110 -57 434 -297 551 -409 18 -16 34 -25 38 -20 6 11 -63 78 -173 167 -41 33 -91 74 -110 91 -20 18 -50 40 -67 50 -17 11 -76 49 -130 86 -55 36 -178 107 -274 156 -191 97 -266 121 -465 148 -138 18 -534 26 -720 13z"/>
 <path d="M1515 8390 c-3 -6 0 -12 7 -15 26 -10 588 0 591 10 3 14 -589 19 -598 5z"/>
 <path d="M1256 8350 c-55 -16 -107 -33 -115 -37 -9 -4 -20 -8 -26 -9 -5 -1 -12 -3 -15 -4 -3 -1 -16 -3 -29 -6 -32 -6 -158 -62 -204 -91 -64 -40 -31 -43 46 -4 102 52 178 84 207 86 14 1 55 12 90 23 36 12 91 27 123 35 58 13 79 30 42 34 -11 1 -65 -11 -119 -27z"/>
 <path d="M2775 8300 c-3 -5 -4 -11 -1 -11 3 -1 9 -2 14 -3 4 -1 16 -7 27 -13 11 -6 52 -22 90 -36 39 -14 108 -42 155 -62 47 -20 93 -38 102 -39 10 -1 48 -21 84 -45 72 -45 74 -58 12 -66 -45 -6 -114 -32 -219 -86 -45 -22 -122 -58 -170 -79 -82 -36 -265 -140 -335 -192 -108 -79 -237 -194 -359 -320 -173 -178 -305 -323 -305 -336 0 -5 -9 -17 -21 -28 -31 -28 -87 -129 -182 -329 -91 -190 -130 -314 -163 -510 -19 -116 -26 -548 -9 -553 6 -1 12 77 16 210 9 300 23 398 86 608 32 106 187 428 259 536 97 147 502 559 664 675 118 85 270 175 370 220 58 26 140 63 183 83 43 20 120 50 172 67 52 16 97 35 101 40 3 6 -1 18 -9 27 -18 20 -119 83 -139 86 -7 1 -26 9 -43 18 -58 31 -308 129 -335 132 -9 1 -21 5 -27 9 -6 4 -14 3 -18 -3z"/>
 <path d="M5977 8264 c-3 -4 11 -29 31 -58 20 -28 42 -59 47 -68 11 -18 201 -267 239 -312 15 -18 26 -24 30 -17 4 6 -10 33 -31 59 -21 26 -45 56 -53 68 -36 50 -250 334 -253 334 -2 0 -6 -3 -10 -6z"/>
 <path d="M795 8150 c-10 -11 -21 -17 -25 -15 -4 3 -36 -26 -71 -63 -78 -83 -184 -253 -215 -342 -12 -36 -41 -105 -64 -155 -50 -107 -92 -215 -84 -215 4 0 1 -7 -6 -15 -7 -8 -9 -15 -5 -15 4 0 2 -6 -4 -14 -8 -10 -9 -16 -1 -21 5 -3 11 -4 11 -1 4 16 7 26 9 31 1 3 3 8 5 13 1 4 11 29 23 55 12 27 22 50 22 52 0 2 29 66 64 142 35 76 67 154 71 173 4 19 38 81 76 138 38 57 69 107 69 111 0 11 116 122 121 116 3 -3 14 3 23 14 10 10 13 22 8 25 -5 3 -17 -3 -27 -14z"/>
 <path d="M3727 8004 c-3 -3 48 -65 115 -137 221 -242 462 -583 643 -911 22 -40 66 -120 98 -177 32 -57 94 -169 138 -249 92 -169 534 -1052 553 -1107 8 -21 45 -103 84 -183 38 -80 75 -161 83 -180 7 -19 44 -100 81 -179 37 -79 68 -148 68 -153 0 -6 33 -79 74 -163 40 -84 77 -163 81 -176 4 -13 14 -32 23 -41 8 -10 12 -18 9 -18 -6 0 155 -334 345 -718 81 -163 124 -240 131 -233 7 7 -41 115 -147 328 -86 175 -186 379 -222 453 -36 74 -73 146 -82 160 -9 14 -18 33 -19 44 -2 10 -36 87 -77 170 -40 83 -76 164 -80 179 -4 16 -38 94 -76 174 -39 80 -70 151 -70 157 0 11 -52 123 -238 511 -169 354 -413 841 -475 949 -22 38 -58 106 -81 150 -44 86 -149 272 -224 396 -25 41 -66 111 -92 156 -65 110 -202 316 -259 387 -69 87 -272 316 -328 370 -27 26 -52 45 -56 41z"/>
 <path d="M6397 7704 c-9 -9 7 -45 51 -116 81 -132 242 -406 248 -424 17 -48 167 -303 175 -298 9 5 -10 46 -81 174 -20 36 -63 115 -95 175 -31 61 -63 117 -70 125 -6 8 -23 35 -36 60 -27 52 -169 291 -179 303 -3 4 -9 5 -13 1z"/>
 <path d="M305 7269 c-37 -101 -108 -369 -101 -377 3 -3 1 -11 -6 -19 -6 -7 -8 -16 -5 -20 4 -3 2 -12 -4 -19 -14 -17 -4 -48 12 -39 6 4 9 16 6 26 -3 10 -1 22 4 25 5 3 9 11 8 17 -1 7 1 19 4 27 3 8 15 51 26 95 11 44 34 125 51 179 20 66 27 103 21 109 -7 7 -12 5 -16 -4z"/>
 <path d="M6877 6834 c-4 -4 22 -63 58 -130 36 -68 65 -128 65 -134 0 -5 31 -66 69 -134 39 -68 77 -140 85 -161 9 -20 33 -60 53 -88 21 -28 39 -60 40 -71 7 -42 89 -217 392 -831 90 -181 170 -343 178 -360 60 -116 292 -572 324 -637 63 -128 274 -536 285 -553 8 -11 14 -25 14 -31 0 -7 17 -43 39 -81 21 -37 78 -144 126 -238 237 -459 297 -568 381 -700 32 -49 76 -119 97 -155 77 -127 182 -277 273 -390 102 -127 209 -237 217 -223 3 5 -27 45 -66 89 -137 154 -354 440 -375 494 -3 8 -39 66 -80 129 -41 63 -78 124 -82 135 -4 12 -40 76 -79 144 -39 68 -80 144 -91 170 -12 26 -41 81 -64 122 -24 41 -83 152 -131 245 -199 388 -261 509 -348 675 -297 574 -850 1691 -938 1895 -23 55 -47 106 -53 114 -6 7 -11 19 -12 27 -1 7 -12 27 -23 43 -12 16 -21 32 -21 36 0 4 -24 50 -54 104 -29 53 -97 182 -151 286 -97 192 -116 221 -128 209z"/>
 <path d="M159 6678 c-1 -2 -3 -23 -4 -49 -1 -25 -4 -49 -7 -55 -10 -16 -30 -182 -24 -193 4 -5 1 -13 -5 -16 -5 -4 -9 -23 -8 -44 1 -20 -1 -43 -5 -53 -10 -23 -3 -84 9 -80 6 1 10 22 11 46 0 23 4 48 8 55 4 6 7 26 5 44 -1 17 1 39 4 47 10 27 28 180 22 189 -3 5 0 13 5 16 6 4 10 17 8 28 -1 12 1 28 5 35 9 13 1 32 -14 32 -5 0 -10 -1 -10 -2z"/>
 <path d="M85 5999 c-10 -26 -1 -504 10 -502 14 4 19 493 6 506 -7 7 -12 5 -16 -4z"/>
 <path d="M1489 5566 c-19 -19 48 -545 81 -640 60 -176 250 -493 400 -667 109 -126 305 -319 351 -343 107 -59 357 -55 749 11 52 8 99 19 104 23 5 5 15 6 22 3 8 -3 22 -2 32 2 9 5 27 7 39 6 11 -1 24 3 28 8 8 15 -21 25 -42 16 -10 -5 -28 -7 -40 -6 -11 1 -24 -3 -28 -9 -3 -5 -10 -8 -15 -5 -4 3 -84 -7 -176 -21 -125 -19 -224 -27 -380 -31 l-212 -5 -53 28 c-37 19 -106 81 -219 194 -207 208 -316 362 -470 663 -66 127 -122 394 -137 650 -4 63 -11 111 -18 117 -6 5 -14 8 -16 6z"/>
 <path d="M106 5323 c-7 -8 -8 -68 0 -75 3 -3 7 -37 10 -74 6 -94 37 -240 49 -234 6 3 10 12 9 20 -2 33 -36 256 -41 270 -3 8 -5 31 -4 51 2 35 -9 56 -23 42z"/>
 <path d="M174 4826 c-4 -9 -1 -22 5 -30 6 -7 9 -15 6 -18 -6 -6 34 -149 46 -164 5 -6 6 -13 3 -16 -6 -7 64 -228 78 -245 6 -7 14 -11 18 -8 7 4 -50 192 -76 255 -4 8 -8 22 -9 30 -4 27 -37 145 -43 155 -4 5 -5 17 -4 27 4 22 -17 33 -24 14z"/>
 <path d="M325 4300 c-3 -5 2 -26 11 -47 9 -21 18 -45 20 -54 5 -25 113 -282 123 -292 5 -5 11 -5 14 0 5 9 -104 285 -122 307 -6 7 -9 15 -6 18 6 5 -22 78 -30 78 -2 0 -6 -4 -10 -10z"/>
 <path d="M4075 4020 c-3 -6 2 -13 12 -16 119 -39 139 -84 88 -200 -17 -37 -22 -61 -16 -67 17 -17 65 101 65 159 1 61 -16 85 -81 115 -48 22 -59 23 -68 9z"/>
 <path d="M486 3881 c-7 -11 13 -58 111 -261 88 -181 111 -222 124 -214 5 3 -6 36 -25 72 -18 37 -51 103 -71 147 -21 44 -58 122 -82 173 -24 50 -45 92 -47 92 -3 0 -7 -4 -10 -9z"/>
 <path d="M3695 3797 c-174 -57 -425 -260 -559 -452 -89 -127 -120 -186 -155 -295 -86 -269 -90 -450 -15 -730 38 -140 69 -219 150 -380 86 -171 164 -283 297 -428 107 -118 157 -160 232 -197 81 -40 140 -30 224 39 30 24 75 52 100 62 25 9 51 20 57 25 5 5 24 0 42 -11 30 -19 51 -13 37 11 -10 15 -55 30 -68 22 -6 -4 -24 -8 -39 -10 -34 -4 -62 -18 -145 -77 -106 -75 -165 -69 -291 27 -257 199 -524 669 -597 1051 -22 116 -20 350 4 451 59 245 179 449 358 611 115 105 179 151 288 210 79 43 97 49 150 49 67 0 100 -16 217 -104 37 -27 70 -46 73 -41 8 12 -107 112 -165 144 -60 33 -138 42 -195 23z"/>
 <path d="M738 3374 c-8 -7 44 -96 141 -244 42 -63 78 -120 81 -126 17 -37 184 -273 191 -269 11 7 -23 67 -88 155 -30 41 -64 93 -75 115 -11 22 -35 60 -53 85 -18 25 -63 95 -100 155 -71 117 -88 139 -97 129z"/>
 <path d="M6258 3355 c-6 -6 271 -565 294 -592 6 -7 14 -10 19 -8 7 5 -256 534 -291 585 -8 12 -18 19 -22 15z"/>
 <path d="M6577 2724 c-11 -11 270 -545 294 -559 22 -14 14 19 -18 71 -20 32 -68 122 -108 199 -74 146 -155 295 -159 295 -2 0 -5 -3 -9 -6z"/>
 <path d="M1855 2330 l-29 -30 18 -36 c19 -41 113 -169 144 -197 42 -38 28 2 -21 60 -29 34 -65 86 -82 116 -25 47 -27 57 -16 71 20 24 51 19 117 -20 116 -69 253 -180 468 -380 302 -281 576 -606 576 -682 0 -24 -2 -24 -60 -20 -47 3 -69 11 -104 36 -31 22 -47 29 -52 21 -13 -22 108 -90 161 -92 43 -1 85 27 85 57 0 73 -295 426 -571 683 -117 108 -361 316 -397 338 -10 6 -38 25 -65 43 -49 35 -107 62 -130 62 -7 0 -26 -13 -42 -30z"/>
 <path d="M6876 2152 c-2 -4 19 -44 47 -88 89 -137 121 -189 121 -196 1 -5 4 -8 9 -8 4 0 10 0 13 0 4 0 1 7 -6 15 -7 8 -9 15 -6 15 10 0 -7 30 -87 158 -68 107 -80 122 -91 104z"/>
 <path d="M1648 2104 c-16 -16 425 -469 444 -457 5 3 -77 93 -183 202 -106 108 -207 211 -224 229 -17 18 -34 30 -37 26z"/>
 <path d="M2035 2031 c-11 -19 318 -357 337 -345 6 4 -18 34 -59 73 -38 36 -115 115 -170 174 -56 59 -104 103 -108 98z"/>
 <path d="M9576 1901 c-4 -5 108 -123 246 -263 254 -254 364 -357 443 -413 23 -16 66 -50 96 -74 112 -91 474 -318 589 -370 217 -96 346 -142 475 -171 92 -20 249 -33 260 -22 12 12 -21 32 -54 32 -20 0 -92 9 -161 19 -127 19 -261 61 -395 121 -38 18 -86 38 -106 45 -19 7 -80 39 -135 71 -54 31 -124 72 -155 89 -133 76 -406 284 -603 460 -121 107 -239 223 -399 393 -48 50 -90 92 -92 92 -2 0 -6 -4 -9 -9z"/>
 <path d="M2376 1672 c-13 -21 406 -418 426 -406 6 4 -30 43 -79 87 -48 44 -115 108 -148 141 -117 119 -193 187 -199 178z"/>
 <path d="M7225 1630 c-3 -6 11 -31 33 -58 21 -26 82 -101 134 -167 112 -140 134 -163 149 -148 7 7 2 18 -18 34 -37 32 -123 134 -123 146 0 5 -10 18 -21 29 -12 10 -48 54 -81 97 -33 42 -62 77 -64 77 -1 0 -6 -5 -9 -10z"/>
 <path d="M2166 1582 c-8 -14 149 -160 384 -356 36 -30 69 -52 73 -49 11 7 -41 61 -95 99 -39 27 -65 50 -271 237 -47 42 -88 73 -91 69z"/>
 <path d="M4063 1308 c-16 -29 -44 -76 -62 -104 -17 -27 -43 -81 -57 -120 -84 -229 -124 -350 -120 -360 2 -6 0 -16 -6 -22 -6 -6 -6 -12 1 -16 6 -4 12 -5 12 -2 3 13 6 22 16 46 6 14 29 78 52 143 49 142 124 319 150 355 36 52 63 114 53 124 -6 6 -20 -10 -39 -44z"/>
 <path d="M2735 1100 c-5 -8 195 -150 210 -150 3 0 41 -22 83 -48 100 -63 158 -96 204 -115 52 -22 60 -1 8 22 -39 17 -185 104 -400 238 -55 34 -102 58 -105 53z"/>
 <path d="M7916 872 c-3 -5 7 -20 22 -34 46 -41 226 -175 278 -206 27 -16 90 -54 139 -84 136 -83 455 -232 468 -219 7 7 -3 16 -34 30 -298 130 -600 304 -751 433 -31 26 -60 48 -64 48 -4 0 -18 9 -30 21 -12 11 -24 16 -28 11z"/>
 <path d="M3445 690 c-7 -12 51 -42 156 -80 110 -41 136 -39 183 9 21 21 34 41 28 44 -5 4 -22 -7 -37 -23 -20 -21 -38 -30 -60 -30 -32 0 -184 49 -236 76 -17 8 -30 10 -34 4z"/>
 <path d="M11365 308 c-38 -16 -108 -42 -155 -59 -47 -16 -92 -32 -100 -36 -8 -3 -18 -6 -21 -5 -4 1 -22 -3 -40 -9 -19 -5 -50 -12 -69 -14 -40 -4 -248 -44 -270 -52 -8 -3 -44 -7 -79 -9 -36 -3 -69 -8 -74 -11 -6 -3 -30 -7 -53 -7 -24 -1 -45 -5 -46 -11 -3 -12 57 -19 80 -10 10 4 45 8 80 10 35 2 69 9 76 14 7 6 16 8 19 5 6 -6 230 31 267 44 8 2 27 6 41 8 15 2 39 9 55 15 16 7 32 12 36 11 19 -4 306 104 326 123 27 25 -4 22 -73 -7z"/>
 <path d="M8865 321 c-7 -13 31 -30 218 -100 166 -62 209 -73 221 -61 6 6 4 11 -5 14 -8 3 -59 21 -114 39 -80 28 -230 84 -301 114 -7 2 -15 0 -19 -6z"/>
 <path d="M9335 160 c-7 -11 -2 -13 64 -30 23 -6 46 -9 49 -6 3 3 11 1 18 -5 8 -6 20 -9 29 -6 8 4 17 2 21 -4 3 -6 18 -9 32 -8 15 2 32 0 37 -3 16 -10 283 -30 345 -26 95 5 61 23 -60 30 -249 14 -286 17 -303 23 -9 4 -26 5 -37 2 -11 -3 -23 -1 -26 4 -3 6 -13 9 -22 8 -10 -1 -24 1 -32 4 -18 7 -92 27 -102 27 -4 0 -10 -5 -13 -10z"/>
 </g>

</svg>